<svg xmlns="http://www.w3.org/2000/svg" width="1261pt" height="1060" viewBox="46.15 16.12 1063.28 755.28"><g fill="#0fa6df"><path d="M334.34 76.62c40.15-20.07 80.22-40.3 120.3-60.5l-.01.47c-.24 100.63-.07 201.25-.09 301.88-40 20.22-80.09 40.26-120.08 60.5l-.19.1c.02-100.82-.12-201.64.07-302.45ZM696.17 137.16c40.06-20.21 80.15-40.37 120.24-60.53.05 100.74.03 201.48.01 302.22-40.09 20.17-80.18 40.33-120.26 60.52.06-100.74.03-201.47.01-302.21Z"/></g><path fill="#f26b21" d="M575.37 76.68c40.05-20.22 80.14-40.37 120.25-60.48 40.24 20.18 80.54 40.26 120.79 60.43-40.09 20.16-80.18 40.32-120.24 60.53-40.31-20.08-80.54-40.31-120.8-60.48Z"/><path fill="#8dd7f7" d="M454.63 16.59c.69.24 2.09.71 2.79.95 39.29 19.76 78.63 39.42 117.95 59.14 40.26 20.17 80.49 40.4 120.8 60.48.02 100.74.05 201.47-.01 302.21-40.32-20.07-80.53-40.34-120.8-60.48-40.27-20.15-80.47-40.44-120.82-60.42.02-100.63-.15-201.25.09-301.88Z"/><g fill="#104c97"><path d="M334.46 378.97c39.99-20.24 80.08-40.28 120.08-60.5 40.35 19.98 80.55 40.27 120.82 60.42-40.07 20.18-80.15 40.33-120.24 60.5-40.21-20.15-80.48-40.2-120.66-60.42ZM923.09 526.31c14.22-6.63 28.25-13.64 42.42-20.36-.04 70.09.08 140.18-.06 210.28-13.33-.07-26.65-.01-39.97-.03-.02-8.48-.01-16.96-.01-25.43-3.01 7.8-6.73 15.84-13.57 21.04-8.94 6.86-21.1 7.69-31.83 5.64-11.35-2.21-21-10-26.81-19.83-8.56-14.33-11.5-31.23-12.6-47.67-.96-18.34.08-37.09 5.78-54.66 3.78-11.45 10.09-22.67 20.28-29.55 11.08-7.5 25.57-8.84 38.3-5.44 7.76 2.06 13.94 7.8 17.9 14.62.15-16.2-.19-32.41.17-48.61m-22.69 61.3c-7.31 1.35-11.25 8.64-12.79 15.27-2.92 12.15-2.42 24.76-2.49 37.16.15 11.08.06 22.32 2.67 33.17 1.44 5.7 4.27 11.91 10.1 14.23 6.19 2.25 13.95.9 18.34-4.25 3.91-4.51 5.34-10.55 6.11-16.32 1-8.93.46-17.92.6-26.88-.15-10.14.44-20.33-.72-30.44-.82-6.12-2.26-12.57-6.44-17.34-3.72-4.34-9.94-5.73-15.38-4.6ZM350.64 527.79c14.42-7.15 28.85-14.27 43.28-21.39 0 17.65-.01 35.3.01 52.95 10.21.01 20.42-.01 30.64.01-.01 11.35.02 22.7-.02 34.05-10.17-.04-20.35.05-30.52-.05-.24 21.18-.07 42.37-.08 63.56.19 6.01-.16 12.32 2.21 17.99 1.54 3.77 5.48 5.82 9.32 6.46 7.08 1.2 14.3.63 21.44.32 0 11.04.01 22.08-.01 33.12-16.37 3.17-33.67 5-49.93.31-9.33-2.72-18.19-8.57-22.65-17.42-4.9-9.77-5.19-20.98-5.46-31.67-.15-24.21-.02-48.42-.07-72.63h-18.17c-.02-11.34.01-22.69-.01-34.03 6.67-.04 13.34-.01 20.01-.01.04-10.52 0-21.05.01-31.57ZM104.67 561.67c9.64-4.75 20.89-5.12 31.35-3.6 10.54 1.64 20.34 8.1 25.42 17.57 3.26 6.26 4.25 13.41 4.77 20.37.59 9.33.34 18.68.4 28.02-.05 30.74.09 61.47-.07 92.2-14.35-.05-28.71-.05-43.06 0-.18-35.09.01-70.18-.1-105.26-.18-5.14-.25-10.69-3.18-15.13-2.22-3.32-6.35-4.63-10.17-4.77-4.91-.21-10.28.48-14.13 3.8-3.48 3-4.97 7.59-5.67 12-1.13 7.32-.81 14.76-.88 22.14 0 29.06.01 58.12 0 87.19-14.4 0-28.8.01-43.19-.01-.01-51.81-.01-103.62 0-155.43 13.66-.01 27.33-.01 40.99 0 .01 7.02.02 14.05-.01 21.08 3.91-8.09 9.23-16.1 17.53-20.17ZM247.07 557.69c20.67-2.53 43.13 5.63 55.05 23.21 12.42 19.02 14.64 42.49 14.24 64.66-27.22.04-54.44 0-81.66.02-.03 10.48-.67 21.32 2.77 31.39 1.79 5.38 5.96 10.17 11.59 11.62 7.08 1.78 15.58.91 20.87-4.57 5.48-5.69 6.68-13.91 7.68-21.41 12.92.85 25.83 1.68 38.75 2.54-3.04 15.51-9.29 31.33-21.86 41.57-13.94 11.55-33.19 14.11-50.66 11.96-14.88-1.76-29.19-9.28-38.13-21.44-12.19-16.28-15.76-37.28-15.78-57.18.3-18.28 3.01-37.11 11.82-53.38 8.99-16.52 26.76-27.24 45.32-28.99m-6.03 35.26c-5.45 8.1-5.71 18.3-6.02 27.72 13.46-.03 26.93.03 40.39-.03.19-9.14-.03-18.99-5.11-26.94-6.12-9.93-22.7-10.49-29.26-.75ZM602.94 558.02c21.29-3.43 44.95 4.43 57.44 22.58 12.61 19.06 14.87 42.69 14.44 64.98-27.22 0-54.44-.01-81.65.01-.04 10.17-.59 20.64 2.46 30.49 1.69 5.65 5.81 10.86 11.68 12.45 7.06 1.84 15.56 1.05 20.93-4.35 5.6-5.68 6.85-13.98 7.83-21.56 12.92.82 25.83 1.7 38.75 2.51-3.02 15.58-9.33 31.46-21.97 41.7-13.79 11.35-32.73 13.93-49.99 11.92-14.94-1.65-29.39-9.06-38.46-21.22-12.36-16.31-15.98-37.46-16-57.48.29-17.91 2.93-36.3 11.27-52.36 8.43-16.24 25.27-27.25 43.27-29.67m-3.69 35.32c-5.2 8.06-5.43 18.04-5.78 27.31 13.46.03 26.92.01 40.39.02.24-9.25-.03-19.28-5.28-27.27-6.35-9.81-23.04-10.05-29.33-.06ZM748.85 558.31c14.75-2.02 30.34-1.34 44.12 4.73 6.76 3.05 12.99 7.52 17.56 13.4 5.45 7.68 6.67 17.38 7.34 26.53.72 12.99.29 26.01.41 39.02.03 16.83-.09 33.65.07 50.47.21 7.95.07 16.05 2.39 23.75-13.33-.02-26.66-.01-40-.01-2.47-7.69-2.11-15.85-2.2-23.82-4 7.06-8.7 13.97-15.37 18.77-9.7 7.2-22.4 9.21-34.18 7.79-10.2-1.23-20.22-6.22-26.24-14.72-6.69-9.24-8.33-21.14-7.59-32.27.59-11.62 4.67-23.43 13.12-31.68 10.08-9.99 24.09-14.57 37.71-17.24 9.59-1.85 19.34-2.75 29.08-3.31-.25-8.76.97-18.01-2.48-26.32-3.74-8.61-15.86-9.27-22.95-4.67-6.67 4.8-7.7 13.69-8.63 21.23-13.55-1.36-27.1-2.75-40.65-4.1 1.13-9.43 4.04-18.88 9.95-26.45 9.22-11.99 23.74-19.06 38.54-21.1m.47 90.89c-5.7 3.58-8.74 10.17-9.27 16.71-.61 6.62-.49 13.94 3.42 19.62 4.3 6.15 13.71 6.63 19.52 2.4 4.6-3.35 7.6-8.49 9.46-13.79 3.37-10.42 2.46-21.55 2.62-32.34-8.82 1.27-18.1 2.48-25.75 7.4ZM505.46 566.42c7.29-7.02 18.28-9.41 28-6.94-.06 14.08-.02 28.15-.02 42.23-9.84-1.68-21.14-.08-28.22 7.55-8.6 9.26-10.43 22.54-10.84 34.67-.12 24.09 0 48.18-.05 72.27-14.4 0-28.8.01-43.19-.01 0-51.81-.01-103.62 0-155.43 12.71-.01 25.42-.01 38.13 0 .02 12.44-.02 24.88.02 37.32 3.36-11.37 7.28-23.33 16.17-31.66ZM987.74 560.76c14.4-.01 28.79-.01 43.19 0 7.08 31.7 14 63.43 21.17 95.11 6.7-31.71 13.44-63.41 20.14-95.11 12.4-.02 24.79-.01 37.19 0-14.24 48.39-28.52 96.77-42.78 145.15-3.12 10.4-5.98 20.89-9.63 31.12-3.11 8.49-6.97 17.03-13.48 23.48-5.11 5.15-11.91 8.4-18.98 9.79-10.11 1.93-20.61 1.23-30.52-1.43-.01-11.34 0-22.68 0-34.03 8.3 1.04 16.99 1.76 25.12-.65 7.83-2.77 10.14-11.64 12.44-18.72 1.1-2.51-.37-5.02-.95-7.45-14.31-49.08-28.62-98.17-42.91-147.26Z"/></g></svg>